<svg width="534" height="730" viewBox="0 0 534 730" fill="none" xmlns="http://www.w3.org/2000/svg">
<path fill-rule="evenodd" clip-rule="evenodd" d="M143.803 2.54717C214.848 13.1426 252.988 87.894 312.818 127.687C376.662 170.15 468.078 175.915 505.315 242.99C544.451 313.488 541.824 405.884 507.859 479.02C475.422 548.869 394.312 574.786 330.942 618.47C269.652 660.721 218.209 728.917 143.803 729.984C69.1537 731.055 4.04282 678.185 -47.2719 623.895C-92.342 576.211 -109.432 511.638 -123.236 447.46C-135.702 389.5 -131.421 332.566 -122.542 273.948C-111.771 202.84 -116.582 122.457 -66.2357 71.1554C-13.3268 17.2422 69.1346 -8.58878 143.803 2.54717Z" fill="#F25022"/>
</svg>
